<svg width="32" height="32" viewBox="0 0 32 32" fill="none" xmlns="http://www.w3.org/2000/svg">
<g clip-path="url(#clip0_187_47)">
<path d="M15.2119 7.33353C15.2119 6.8984 15.5646 6.54565 15.9998 6.54565C16.4349 6.54565 16.7877 6.8984 16.7877 7.33353V8.90929C16.7877 9.34442 16.4349 9.69717 15.9998 9.69717C15.5646 9.69717 15.2119 9.34442 15.2119 8.90929V7.33353Z" fill="#130139"/>
<path fill-rule="evenodd" clip-rule="evenodd" d="M20.727 16.0002C20.727 18.611 18.6105 20.7275 15.9997 20.7275C13.3889 20.7275 11.2725 18.611 11.2725 16.0002C11.2725 13.3894 13.3889 11.2729 15.9997 11.2729C18.6105 11.2729 20.727 13.3894 20.727 16.0002ZM12.8968 16.0002C12.8968 17.7139 14.286 19.1031 15.9997 19.1031C17.7134 19.1031 19.1026 17.7139 19.1026 16.0002C19.1026 14.2865 17.7134 12.8973 15.9997 12.8973C14.286 12.8973 12.8968 14.2865 12.8968 16.0002Z" fill="#130139"/>
<path d="M22.6853 9.31475C22.3776 9.00706 21.8788 9.00706 21.5711 9.31475L20.4568 10.429C20.1492 10.7367 20.1492 11.2355 20.4568 11.5432C20.7646 11.8509 21.2634 11.8509 21.5711 11.5432L22.6853 10.429C22.993 10.1213 22.993 9.62243 22.6853 9.31475Z" fill="#130139"/>
<path d="M7.33329 16.7882C6.89816 16.7882 6.54541 16.4354 6.54541 16.0003C6.54541 15.5651 6.89816 15.2124 7.33329 15.2124H8.90905C9.34418 15.2124 9.69693 15.5651 9.69693 16.0003C9.69693 16.4354 9.34418 16.7882 8.90905 16.7882H7.33329Z" fill="#130139"/>
<path d="M9.31475 9.31475C9.00706 9.62243 9.00706 10.1213 9.31475 10.429L10.429 11.5432C10.7367 11.8509 11.2355 11.8509 11.5432 11.5432C11.8509 11.2355 11.8509 10.7367 11.5432 10.429L10.429 9.31475C10.1213 9.00706 9.62244 9.00706 9.31475 9.31475Z" fill="#130139"/>
<path d="M15.2119 23.0911C15.2119 22.656 15.5646 22.3032 15.9998 22.3032C16.4349 22.3032 16.7877 22.656 16.7877 23.0911V24.6669C16.7877 25.102 16.4349 25.4547 15.9998 25.4547C15.5646 25.4547 15.2119 25.102 15.2119 24.6669V23.0911Z" fill="#130139"/>
<path d="M11.5432 20.4571C11.2355 20.1494 10.7367 20.1494 10.429 20.4571L9.31475 21.5713C9.00706 21.879 9.00706 22.3779 9.31475 22.6856C9.62243 22.9932 10.1213 22.9932 10.429 22.6856L11.5432 21.5713C11.8509 21.2636 11.8509 20.7648 11.5432 20.4571Z" fill="#130139"/>
<path d="M23.0911 16.7882C22.656 16.7882 22.3032 16.4354 22.3032 16.0003C22.3032 15.5651 22.656 15.2124 23.0911 15.2124H24.6669C25.102 15.2124 25.4547 15.5651 25.4547 16.0003C25.4547 16.4354 25.102 16.7882 24.6669 16.7882H23.0911Z" fill="#130139"/>
<path d="M20.4568 20.4571C20.1492 20.7648 20.1492 21.2636 20.4568 21.5713L21.5711 22.6856C21.8788 22.9932 22.3776 22.9932 22.6853 22.6856C22.993 22.3779 22.993 21.879 22.6853 21.5713L21.5711 20.4571C21.2634 20.1494 20.7646 20.1494 20.4568 20.4571Z" fill="#130139"/>
</g>
<circle cx="16" cy="16" r="15.5" stroke="#130139"/>
<defs>
<clipPath id="clip0_187_47">
<rect width="18.9091" height="18.9091" fill="white" transform="translate(6.54541 6.54565)"/>
</clipPath>
</defs>
</svg>
