<svg width="32" height="32" viewBox="0 0 32 32" fill="none" xmlns="http://www.w3.org/2000/svg">
<circle cx="16" cy="16" r="15.5" stroke="#130139"/>
<path d="M23.071 7.21114C22.9168 6.81862 22.3633 6.81862 22.2091 7.21114L21.7966 8.26078C21.7496 8.38062 21.6551 8.47549 21.5357 8.52275L20.4899 8.93673C20.0988 9.09153 20.0988 9.64704 20.4899 9.80185L21.5357 10.2158C21.6551 10.2631 21.7496 10.358 21.7966 10.4778L22.2091 11.5274C22.3633 11.92 22.9168 11.92 23.071 11.5274L23.4835 10.4778C23.5306 10.358 23.625 10.2631 23.7445 10.2158L24.7903 9.80185C25.1814 9.64704 25.1814 9.09153 24.7903 8.93673L23.7445 8.52275C23.625 8.47549 23.5306 8.38062 23.4835 8.26078L23.071 7.21114Z" fill="#140337"/>
<path d="M19.3647 12.791C19.2104 12.3985 18.657 12.3985 18.5027 12.791L18.3523 13.1737C18.3053 13.2935 18.2108 13.3884 18.0914 13.4356L17.7101 13.5866C17.319 13.7414 17.319 14.2969 17.7101 14.4517L18.0914 14.6026C18.2108 14.6499 18.3053 14.7448 18.3523 14.8646L18.5027 15.2473C18.657 15.6398 19.2104 15.6398 19.3647 15.2473L19.5151 14.8646C19.5621 14.7448 19.6566 14.6499 19.776 14.6026L20.1574 14.4517C20.5485 14.2969 20.5485 13.7414 20.1574 13.5866L19.776 13.4356C19.6566 13.3884 19.5621 13.2935 19.5151 13.1737L19.3647 12.791Z" fill="#140337"/>
<path d="M15.5001 26.0834C20.7928 26.0834 25.0834 21.7928 25.0834 16.5001C25.0834 16.0567 24.4188 15.9833 24.1895 16.3628C23.0986 18.1682 21.1174 19.3751 18.8542 19.3751C15.4139 19.3751 12.6251 16.5862 12.6251 13.1459C12.6251 10.8828 13.832 8.9015 15.6373 7.81064C16.0168 7.58132 15.9435 6.91675 15.5001 6.91675C10.2073 6.91675 5.91675 11.2073 5.91675 16.5001C5.91675 21.7928 10.2073 26.0834 15.5001 26.0834Z" fill="#140337"/>
</svg>
